<svg width="220" height="149" viewBox="0 0 220 149" fill="none" xmlns="http://www.w3.org/2000/svg">
<g id="Group">
<g id="Modo de aislamiento">
<g id="Group_2">
<g id="Group_3">
<g id="Group_4">
<path id="Vector" d="M26.06 86.65C25.74 86.65 25.42 86.51 25.16 86.26C24.9 86.01 24.77 85.7 24.77 85.38C24.77 85.06 24.91 84.74 25.17 84.49C25.43 84.23 25.73 84.1 26.05 84.1C26.37 84.1 26.68 84.24 26.94 84.5C27.46 85.02 27.46 85.75 26.94 86.27C26.69 86.52 26.38 86.66 26.06 86.66V86.65Z" fill="white"/>
<path id="Vector_2" d="M38.44 74.27C38.11 74.27 37.78 74.12 37.52 73.86C37.27 73.6 37.14 73.3 37.15 72.97C37.15 72.65 37.31 72.33 37.57 72.08C37.82 71.84 38.12 71.71 38.43 71.71C38.76 71.71 39.08 71.86 39.35 72.13C39.6 72.39 39.73 72.7 39.72 73.02C39.72 73.34 39.57 73.65 39.31 73.9C39.06 74.14 38.76 74.27 38.45 74.27H38.44Z" fill="white"/>
<path id="Vector_3" d="M50.83 61.88C50.5 61.88 50.18 61.74 49.93 61.48C49.68 61.23 49.55 60.91 49.55 60.59C49.55 60.27 49.7 59.95 49.95 59.7C50.2 59.45 50.51 59.32 50.82 59.32C51.13 59.32 51.46 59.46 51.72 59.73C52.24 60.26 52.23 60.99 51.7 61.5C51.45 61.75 51.15 61.88 50.82 61.88H50.83Z" fill="white"/>
<path id="Vector_4" d="M1.29003 86.65C0.960027 86.65 0.640027 86.5 0.380027 86.24C-0.129973 85.71 -0.119973 84.98 0.410027 84.46C0.660027 84.21 0.960027 84.08 1.27003 84.08C1.58003 84.08 1.92003 84.23 2.18003 84.49C2.43003 84.75 2.56003 85.06 2.56003 85.38C2.56003 85.7 2.41003 86.01 2.15003 86.27C1.90003 86.51 1.60003 86.64 1.28003 86.64L1.29003 86.65Z" fill="white"/>
<path id="Vector_5" d="M13.67 74.27C13.34 74.27 13.02 74.13 12.77 73.87C12.25 73.35 12.26 72.62 12.79 72.1C13.04 71.85 13.35 71.72 13.66 71.72C13.97 71.72 14.3 71.86 14.56 72.13C15.08 72.65 15.07 73.38 14.55 73.9C14.3 74.15 13.99 74.28 13.67 74.28V74.27Z" fill="white"/>
<path id="Vector_6" d="M26.06 61.88C25.74 61.88 25.43 61.74 25.17 61.49C24.65 60.97 24.64 60.24 25.17 59.72C25.43 59.46 25.73 59.32 26.06 59.32C26.39 59.32 26.69 59.46 26.95 59.71C27.47 60.23 27.48 60.96 26.96 61.48C26.71 61.73 26.39 61.87 26.07 61.87L26.06 61.88Z" fill="white"/>
<path id="Vector_7" d="M1.29004 99.04C0.96004 99.04 0.64004 98.9 0.39004 98.64C0.14004 98.39 0.0100403 98.07 0.0100403 97.75C0.0100403 97.43 0.16004 97.11 0.41004 96.86C0.66004 96.61 0.97004 96.48 1.28004 96.48C1.59004 96.48 1.92004 96.62 2.18004 96.89C2.70004 97.42 2.69004 98.15 2.16004 98.66C1.91004 98.91 1.60004 99.04 1.28004 99.04H1.29004Z" fill="white"/>
<path id="Vector_8" d="M13.67 86.65C13.33 86.65 12.99 86.5 12.73 86.22C12.23 85.69 12.26 84.96 12.81 84.44C13.06 84.21 13.35 84.09 13.65 84.09C13.99 84.09 14.32 84.24 14.58 84.53C14.82 84.79 14.94 85.09 14.93 85.41C14.92 85.74 14.77 86.05 14.5 86.3C14.26 86.53 13.96 86.65 13.65 86.65H13.67Z" fill="white"/>
<path id="Vector_9" d="M26.06 74.27C25.74 74.27 25.42 74.13 25.16 73.87C24.91 73.62 24.77 73.31 24.77 72.99C24.77 72.67 24.91 72.35 25.17 72.1C25.43 71.84 25.73 71.71 26.05 71.71C26.37 71.71 26.68 71.85 26.94 72.11C27.46 72.63 27.46 73.36 26.94 73.88C26.69 74.13 26.38 74.27 26.06 74.27Z" fill="white"/>
<path id="Vector_10" d="M38.44 61.88C38.11 61.88 37.79 61.74 37.54 61.48C37.29 61.23 37.16 60.92 37.16 60.6C37.16 60.28 37.3 59.96 37.56 59.71C37.81 59.46 38.12 59.33 38.43 59.33C38.74 59.33 39.07 59.47 39.33 59.74C39.85 60.26 39.84 60.99 39.32 61.51C39.07 61.76 38.76 61.89 38.44 61.89V61.88Z" fill="white"/>
<path id="Vector_11" d="M1.29003 111.42C0.950028 111.42 0.620028 111.27 0.350028 110.99C0.110028 110.73 -0.00997182 110.42 2.81769e-05 110.1C0.0100282 109.78 0.170028 109.46 0.430028 109.21C0.680028 108.98 0.970028 108.86 1.27003 108.86C1.61003 108.86 1.94003 109.02 2.20003 109.3C2.44003 109.56 2.56003 109.86 2.55003 110.18C2.54003 110.51 2.39003 110.82 2.12003 111.07C1.88003 111.3 1.58003 111.42 1.27003 111.42H1.29003Z" fill="white"/>
<path id="Vector_12" d="M13.67 99.04C13.34 99.04 13.02 98.9 12.76 98.63C12.51 98.38 12.38 98.06 12.38 97.74C12.38 97.42 12.53 97.1 12.79 96.85C13.04 96.6 13.34 96.47 13.66 96.47C13.98 96.47 14.31 96.62 14.57 96.88C15.09 97.41 15.07 98.14 14.55 98.65C14.3 98.9 14 99.03 13.68 99.03L13.67 99.04Z" fill="white"/>
</g>
<g id="Group_5">
<path id="Vector_13" d="M50.82 123.81C50.5 123.81 50.19 123.67 49.93 123.41C49.41 122.89 49.41 122.16 49.93 121.64C50.18 121.39 50.49 121.25 50.81 121.25C51.13 121.25 51.45 121.39 51.71 121.64C51.97 121.89 52.1 122.2 52.1 122.52C52.1 122.84 51.96 123.16 51.7 123.41C51.44 123.67 51.14 123.8 50.82 123.8V123.81Z" fill="white"/>
<path id="Vector_14" d="M50.83 111.43C50.5 111.43 50.18 111.28 49.91 111.01C49.66 110.75 49.53 110.44 49.54 110.12C49.54 109.8 49.69 109.49 49.95 109.23C50.2 108.99 50.5 108.86 50.81 108.86C51.14 108.86 51.47 109.01 51.73 109.27C51.98 109.53 52.11 109.83 52.1 110.16C52.1 110.48 51.94 110.8 51.68 111.05C51.43 111.29 51.13 111.42 50.82 111.42L50.83 111.43Z" fill="white"/>
<path id="Vector_15" d="M38.44 123.81C38.12 123.81 37.81 123.67 37.55 123.41C37.03 122.89 37.03 122.16 37.55 121.64C37.8 121.39 38.11 121.25 38.43 121.25C38.75 121.25 39.07 121.39 39.33 121.65C39.58 121.9 39.72 122.21 39.72 122.53C39.72 122.85 39.58 123.17 39.32 123.42C39.06 123.67 38.76 123.81 38.44 123.81Z" fill="white"/>
<path id="Vector_16" d="M50.82 99.04C50.5 99.04 50.19 98.9 49.93 98.65C49.41 98.13 49.4 97.4 49.92 96.88C50.17 96.63 50.49 96.49 50.81 96.49C51.13 96.49 51.45 96.63 51.7 96.88C51.95 97.13 52.09 97.45 52.09 97.77C52.09 98.09 51.95 98.41 51.7 98.66C51.44 98.92 51.14 99.06 50.81 99.06L50.82 99.04Z" fill="white"/>
<path id="Vector_17" d="M38.44 111.43C38.09 111.43 37.74 111.26 37.47 110.96C37.24 110.71 37.13 110.4 37.15 110.09C37.17 109.76 37.33 109.44 37.61 109.19C37.85 108.98 38.13 108.87 38.42 108.87C38.78 108.87 39.12 109.03 39.38 109.33C39.86 109.87 39.81 110.6 39.24 111.11C39 111.32 38.72 111.43 38.43 111.43H38.44Z" fill="white"/>
<path id="Vector_18" d="M26.05 123.81C25.72 123.81 25.4 123.66 25.14 123.4C24.89 123.14 24.76 122.83 24.76 122.51C24.76 122.19 24.91 121.88 25.17 121.62C25.42 121.38 25.72 121.25 26.04 121.25C26.36 121.25 26.69 121.39 26.95 121.66C27.2 121.91 27.33 122.23 27.32 122.55C27.32 122.87 27.17 123.19 26.91 123.44C26.66 123.69 26.36 123.82 26.05 123.82V123.81Z" fill="white"/>
<path id="Vector_19" d="M50.82 86.66C50.5 86.66 50.2 86.53 49.95 86.28C49.42 85.76 49.4 85.03 49.91 84.51C50.17 84.25 50.49 84.1 50.81 84.1C51.13 84.1 51.43 84.23 51.68 84.48C52.21 85 52.23 85.73 51.72 86.25C51.46 86.51 51.14 86.66 50.82 86.66Z" fill="white"/>
<path id="Vector_20" d="M38.44 99.04C38.11 99.04 37.79 98.89 37.53 98.63C37.28 98.37 37.15 98.06 37.15 97.74C37.15 97.42 37.3 97.11 37.56 96.85C37.81 96.61 38.11 96.48 38.43 96.48C38.75 96.48 39.08 96.63 39.34 96.89C39.85 97.42 39.84 98.15 39.31 98.66C39.06 98.91 38.76 99.04 38.45 99.04H38.44Z" fill="white"/>
<path id="Vector_21" d="M26.05 111.43C25.72 111.43 25.41 111.29 25.15 111.02C24.63 110.49 24.64 109.77 25.16 109.25C25.41 109 25.72 108.87 26.04 108.87C26.36 108.87 26.69 109.01 26.94 109.27C27.46 109.79 27.45 110.52 26.92 111.05C26.67 111.3 26.36 111.43 26.05 111.43Z" fill="white"/>
<path id="Vector_22" d="M13.67 123.81C13.35 123.81 13.04 123.67 12.78 123.42C12.26 122.9 12.25 122.17 12.77 121.65C13.02 121.4 13.34 121.26 13.66 121.26C13.98 121.26 14.29 121.4 14.55 121.65C15.07 122.17 15.08 122.9 14.55 123.42C14.29 123.68 13.99 123.82 13.66 123.82L13.67 123.81Z" fill="white"/>
<path id="Vector_23" d="M50.82 74.27C50.5 74.27 50.18 74.13 49.92 73.86C49.4 73.33 49.41 72.61 49.94 72.09C50.19 71.84 50.5 71.71 50.82 71.71C51.14 71.71 51.47 71.85 51.72 72.11C51.97 72.36 52.1 72.68 52.1 73C52.1 73.32 51.95 73.64 51.7 73.89C51.45 74.14 51.14 74.27 50.83 74.27H50.82Z" fill="white"/>
<path id="Vector_24" d="M38.44 86.66C38.11 86.66 37.8 86.52 37.54 86.25C37.02 85.73 37.03 85 37.56 84.48C37.81 84.23 38.12 84.1 38.44 84.1C38.76 84.1 39.09 84.24 39.34 84.5C39.59 84.75 39.72 85.07 39.72 85.39C39.72 85.71 39.57 86.03 39.32 86.28C39.07 86.53 38.76 86.66 38.45 86.66H38.44Z" fill="white"/>
<path id="Vector_25" d="M26.06 99.04C25.72 99.04 25.39 98.88 25.13 98.6C24.89 98.34 24.77 98.04 24.78 97.72C24.79 97.39 24.94 97.08 25.21 96.83C25.45 96.6 25.75 96.48 26.06 96.48C26.4 96.48 26.74 96.63 27 96.91C27.24 97.16 27.36 97.48 27.35 97.8C27.34 98.12 27.18 98.44 26.92 98.69C26.67 98.92 26.38 99.04 26.08 99.04H26.06Z" fill="white"/>
<path id="Vector_26" d="M13.67 111.43C13.35 111.43 13.04 111.29 12.78 111.03C12.26 110.51 12.26 109.78 12.78 109.26C13.03 109.01 13.34 108.87 13.66 108.87C13.98 108.87 14.3 109.01 14.56 109.26C14.82 109.51 14.95 109.82 14.95 110.14C14.95 110.46 14.81 110.78 14.55 111.03C14.29 111.29 13.99 111.42 13.67 111.42V111.43Z" fill="white"/>
<path id="Vector_27" d="M1.28003 123.81C0.950031 123.81 0.640031 123.67 0.380031 123.4C-0.139969 122.88 -0.129969 122.15 0.390031 121.63C0.640031 121.38 0.950031 121.25 1.27003 121.25C1.59003 121.25 1.92003 121.39 2.17003 121.65C2.42003 121.9 2.55003 122.21 2.55003 122.53C2.55003 122.85 2.40003 123.17 2.15003 123.42C1.90003 123.67 1.59003 123.8 1.28003 123.8V123.81Z" fill="white"/>
</g>
</g>
<g id="Group_6">
<g id="Group_7">
<path id="Vector_28" d="M87.99 86.65C87.67 86.65 87.35 86.51 87.09 86.26C86.83 86.01 86.7 85.7 86.7 85.38C86.7 85.06 86.84 84.74 87.1 84.49C87.36 84.23 87.66 84.1 87.98 84.1C88.3 84.1 88.61 84.24 88.87 84.5C89.39 85.02 89.39 85.75 88.87 86.27C88.62 86.52 88.31 86.66 87.99 86.66V86.65Z" fill="white"/>
<path id="Vector_29" d="M63.22 61.88C62.9 61.88 62.58 61.74 62.32 61.48C62.07 61.23 61.93 60.92 61.93 60.6C61.93 60.28 62.07 59.96 62.33 59.71C62.59 59.46 62.89 59.32 63.21 59.32C63.53 59.32 63.84 59.46 64.1 59.72C64.62 60.24 64.62 60.97 64.1 61.49C63.85 61.74 63.54 61.88 63.22 61.88Z" fill="white"/>
<path id="Vector_30" d="M63.22 74.27C62.86 74.27 62.52 74.11 62.26 73.81C61.78 73.27 61.83 72.54 62.4 72.03C62.64 71.82 62.92 71.71 63.21 71.71C63.56 71.71 63.9 71.88 64.18 72.18C64.41 72.43 64.52 72.74 64.5 73.05C64.48 73.38 64.32 73.7 64.04 73.95C63.8 74.16 63.52 74.27 63.23 74.27H63.22Z" fill="white"/>
<path id="Vector_31" d="M63.22 86.65C62.89 86.65 62.57 86.5 62.31 86.24C61.8 85.71 61.81 84.98 62.34 84.46C62.59 84.21 62.89 84.08 63.2 84.08C63.51 84.08 63.85 84.23 64.11 84.49C64.36 84.75 64.49 85.06 64.49 85.38C64.49 85.7 64.34 86.01 64.08 86.27C63.83 86.51 63.53 86.64 63.21 86.64L63.22 86.65Z" fill="white"/>
<path id="Vector_32" d="M75.6 74.27C75.27 74.27 74.95 74.13 74.7 73.87C74.18 73.35 74.19 72.62 74.72 72.1C74.97 71.85 75.28 71.72 75.59 71.72C75.9 71.72 76.23 71.86 76.49 72.12C77.01 72.64 77 73.37 76.48 73.89C76.23 74.14 75.92 74.27 75.6 74.27Z" fill="white"/>
<path id="Vector_33" d="M63.22 99.04C62.89 99.04 62.57 98.9 62.32 98.64C62.07 98.39 61.94 98.08 61.94 97.76C61.94 97.44 62.09 97.12 62.34 96.86C62.59 96.61 62.9 96.48 63.21 96.48C63.52 96.48 63.85 96.62 64.11 96.89C64.63 97.42 64.62 98.15 64.09 98.66C63.84 98.91 63.53 99.04 63.21 99.04H63.22Z" fill="white"/>
<path id="Vector_34" d="M75.61 86.65C75.27 86.65 74.93 86.5 74.67 86.22C74.43 85.96 74.31 85.65 74.32 85.33C74.33 85.01 74.49 84.69 74.75 84.44C75 84.21 75.29 84.09 75.59 84.09C75.93 84.09 76.26 84.24 76.52 84.53C76.76 84.79 76.88 85.09 76.87 85.41C76.86 85.74 76.71 86.05 76.44 86.3C76.2 86.53 75.9 86.65 75.59 86.65H75.61Z" fill="white"/>
<path id="Vector_35" d="M63.22 111.42C62.88 111.42 62.55 111.27 62.28 110.99C61.78 110.46 61.81 109.73 62.36 109.21C62.61 108.98 62.9 108.86 63.2 108.86C63.54 108.86 63.87 109.02 64.13 109.3C64.37 109.56 64.49 109.86 64.48 110.18C64.48 110.51 64.32 110.82 64.05 111.07C63.81 111.3 63.51 111.42 63.2 111.42H63.22Z" fill="white"/>
<path id="Vector_36" d="M75.6 99.04C75.27 99.04 74.95 98.9 74.69 98.63C74.44 98.38 74.31 98.06 74.31 97.74C74.31 97.42 74.46 97.1 74.72 96.85C74.97 96.6 75.27 96.47 75.59 96.47C75.91 96.47 76.24 96.62 76.5 96.88C76.75 97.14 76.88 97.45 76.88 97.77C76.88 98.09 76.73 98.4 76.48 98.66C76.23 98.91 75.93 99.04 75.61 99.04H75.6Z" fill="white"/>
</g>
<g id="Group_8">
<path id="Vector_37" d="M87.99 123.81C87.66 123.81 87.34 123.66 87.08 123.4C86.57 122.87 86.58 122.14 87.11 121.63C87.36 121.39 87.66 121.26 87.98 121.26C88.3 121.26 88.63 121.4 88.89 121.67C89.14 121.92 89.27 122.24 89.26 122.56C89.26 122.88 89.11 123.2 88.85 123.45C88.6 123.7 88.3 123.83 87.99 123.83V123.81Z" fill="white"/>
<path id="Vector_38" d="M87.98 111.43C87.65 111.43 87.34 111.29 87.08 111.02C86.56 110.5 86.57 109.77 87.09 109.25C87.34 109 87.65 108.87 87.97 108.87C88.29 108.87 88.62 109.01 88.87 109.27C89.39 109.79 89.38 110.52 88.85 111.05C88.6 111.3 88.29 111.43 87.98 111.43Z" fill="white"/>
<path id="Vector_39" d="M75.6 123.81C75.28 123.81 74.97 123.67 74.72 123.42C74.2 122.9 74.19 122.17 74.71 121.65C74.96 121.4 75.28 121.26 75.6 121.26C75.92 121.26 76.23 121.4 76.49 121.65C77.01 122.17 77.02 122.9 76.49 123.42C76.23 123.68 75.93 123.82 75.6 123.82V123.81Z" fill="white"/>
<path id="Vector_40" d="M87.99 99.04C87.65 99.04 87.32 98.88 87.06 98.6C86.82 98.34 86.7001 98.04 86.7101 97.72C86.7201 97.39 86.8701 97.08 87.1401 96.83C87.3801 96.6 87.68 96.48 87.99 96.48C88.33 96.48 88.6701 96.63 88.9301 96.91C89.1701 97.16 89.29 97.48 89.28 97.8C89.27 98.12 89.11 98.44 88.85 98.69C88.6 98.92 88.3101 99.04 88.0101 99.04H87.99Z" fill="white"/>
<path id="Vector_41" d="M75.6 111.43C75.28 111.43 74.97 111.29 74.71 111.03C74.19 110.51 74.19 109.78 74.71 109.26C74.96 109.01 75.27 108.87 75.59 108.87C75.91 108.87 76.23 109.01 76.49 109.27C76.74 109.52 76.88 109.83 76.88 110.15C76.88 110.47 76.74 110.79 76.48 111.04C76.22 111.3 75.92 111.43 75.6 111.43Z" fill="white"/>
<path id="Vector_42" d="M63.21 123.81C62.88 123.81 62.57 123.67 62.31 123.4C61.79 122.88 61.8 122.15 62.32 121.63C62.57 121.38 62.88 121.25 63.2 121.25C63.52 121.25 63.85 121.39 64.1 121.65C64.35 121.9 64.48 122.22 64.48 122.54C64.48 122.86 64.33 123.18 64.08 123.43C63.83 123.68 63.52 123.81 63.21 123.81Z" fill="white"/>
</g>
</g>
<g id="Group_9">
<g id="Group_10">
<path id="Vector_43" d="M26.06 136.01C25.74 136.01 25.42 135.87 25.16 135.62C24.9 135.37 24.77 135.06 24.77 134.74C24.77 134.42 24.91 134.1 25.17 133.85C25.43 133.59 25.73 133.46 26.05 133.46C26.37 133.46 26.68 133.6 26.94 133.86C27.46 134.38 27.46 135.11 26.94 135.63C26.69 135.88 26.38 136.02 26.06 136.02V136.01Z" fill="white"/>
<path id="Vector_44" d="M13.67 136.01C13.33 136.01 12.99 135.86 12.73 135.58C12.49 135.32 12.37 135.01 12.38 134.69C12.39 134.37 12.55 134.05 12.81 133.8C13.06 133.57 13.35 133.45 13.65 133.45C13.99 133.45 14.32 133.6 14.58 133.89C14.82 134.15 14.94 134.45 14.93 134.77C14.92 135.1 14.77 135.41 14.5 135.66C14.26 135.89 13.96 136.01 13.66 136.01H13.67Z" fill="white"/>
</g>
<g id="Group_11">
<path id="Vector_45" d="M50.82 148.4C50.5 148.4 50.19 148.26 49.93 148.01C49.41 147.49 49.4 146.76 49.92 146.24C50.17 145.99 50.49 145.85 50.81 145.85C51.13 145.85 51.45 145.99 51.7 146.24C51.95 146.49 52.09 146.81 52.09 147.13C52.09 147.45 51.95 147.77 51.7 148.02C51.44 148.28 51.13 148.42 50.81 148.42L50.82 148.4Z" fill="white"/>
<path id="Vector_46" d="M50.82 136.01C50.5 136.01 50.2 135.88 49.95 135.63C49.42 135.11 49.4 134.38 49.91 133.86C50.16 133.6 50.49 133.45 50.81 133.45C51.13 133.45 51.43 133.58 51.68 133.83C52.21 134.35 52.23 135.08 51.72 135.6C51.46 135.86 51.14 136.01 50.82 136.01Z" fill="white"/>
<path id="Vector_47" d="M38.44 148.4C38.11 148.4 37.79 148.25 37.53 147.99C37.28 147.73 37.15 147.42 37.15 147.1C37.15 146.78 37.3 146.47 37.56 146.21C37.81 145.97 38.11 145.84 38.43 145.84C38.75 145.84 39.08 145.99 39.34 146.25C39.85 146.78 39.84 147.51 39.31 148.03C39.06 148.28 38.76 148.41 38.45 148.41L38.44 148.4Z" fill="white"/>
<path id="Vector_48" d="M38.44 136.01C38.11 136.01 37.8 135.87 37.54 135.6C37.02 135.07 37.03 134.34 37.56 133.83C37.81 133.58 38.12 133.45 38.44 133.45C38.76 133.45 39.09 133.59 39.34 133.85C39.59 134.1 39.72 134.41 39.72 134.73C39.72 135.05 39.57 135.37 39.32 135.62C39.07 135.87 38.76 136 38.45 136L38.44 136.01Z" fill="white"/>
<path id="Vector_49" d="M26.06 148.4C25.72 148.4 25.39 148.25 25.13 147.96C24.89 147.7 24.77 147.4 24.78 147.08C24.79 146.75 24.94 146.44 25.21 146.19C25.45 145.96 25.75 145.84 26.05 145.84C26.39 145.84 26.73 145.99 26.99 146.27C27.23 146.53 27.35 146.84 27.34 147.16C27.33 147.48 27.17 147.8 26.91 148.05C26.66 148.28 26.37 148.4 26.07 148.4H26.06Z" fill="white"/>
</g>
</g>
<g id="Group_12">
<path id="Vector_50" d="M63.22 136.01C62.89 136.01 62.57 135.86 62.31 135.6C61.8 135.07 61.81 134.34 62.34 133.82C62.59 133.57 62.89 133.44 63.2 133.44C63.51 133.44 63.85 133.59 64.11 133.85C64.62 134.38 64.61 135.11 64.08 135.62C63.83 135.86 63.53 135.99 63.21 135.99L63.22 136.01Z" fill="white"/>
<path id="Vector_51" d="M63.22 148.39C62.89 148.39 62.57 148.25 62.32 147.99C62.07 147.74 61.94 147.43 61.94 147.11C61.94 146.79 62.09 146.47 62.34 146.22C62.59 145.97 62.9 145.84 63.21 145.84C63.52 145.84 63.85 145.98 64.11 146.25C64.63 146.78 64.62 147.51 64.09 148.02C63.84 148.27 63.53 148.4 63.21 148.4L63.22 148.39Z" fill="white"/>
<path id="Vector_52" d="M75.61 136.01C75.27 136.01 74.93 135.86 74.67 135.58C74.43 135.33 74.31 135.01 74.32 134.69C74.33 134.37 74.49 134.05 74.75 133.8C75 133.57 75.29 133.45 75.59 133.45C75.93 133.45 76.26 133.61 76.52 133.89C76.76 134.15 76.88 134.45 76.87 134.77C76.86 135.1 76.71 135.41 76.44 135.66C76.2 135.89 75.9 136.01 75.6 136.01H75.61Z" fill="white"/>
</g>
</g>
<g id="Group_13" style="mix-blend-mode:overlay" opacity="0.45">
<path id="Vector_53" d="M137.62 13.8C137.47 12.97 137.34 12.11 137.22 11.26L200.2 -51.73C201.05 -51.62 201.91 -51.48 202.74 -51.33L137.61 13.8H137.62Z" fill="white"/>
<path id="Vector_54" d="M141.19 25.79C140.9 25.1 140.62 24.4 140.35 23.69L212.64 -48.6C213.34 -48.33 214.05 -48.05 214.74 -47.76L141.19 25.79Z" fill="white"/>
<path id="Vector_55" d="M146.73 35.82C146.33 35.25 145.94 34.66 145.55 34.06L223 -43.4C223.6 -43.01 224.19 -42.62 224.76 -42.22L146.72 35.82H146.73Z" fill="white"/>
<path id="Vector_56" d="M153.89 44.22C153.64 43.98 153.39 43.74 153.15 43.49C152.9 43.24 152.66 43 152.42 42.75L231.69 -36.53C231.94 -36.29 232.19 -36.05 232.43 -35.8C232.68 -35.55 232.92 -35.31 233.16 -35.06L153.89 44.21V44.22Z" fill="white"/>
<path id="Vector_57" d="M162.59 51.09C161.98 50.7 161.39 50.31 160.83 49.91L238.86 -28.13C239.25 -27.57 239.64 -26.98 240.04 -26.37L162.59 51.08V51.09Z" fill="white"/>
<path id="Vector_58" d="M172.94 56.29C172.23 56.02 171.53 55.74 170.84 55.45L244.4 -18.1C244.69 -17.41 244.98 -16.71 245.24 -16L172.94 56.3V56.29Z" fill="white"/>
<path id="Vector_59" d="M185.38 59.42C184.53 59.31 183.68 59.17 182.84 59.02L247.97 -6.10999C248.12 -5.26999 248.25 -4.41998 248.37 -3.56998L185.39 59.41L185.38 59.42Z" fill="white"/>
<path id="Vector_60" d="M248.64 8.79C248.54 9.91 248.41 11.02 248.25 12.12L201.07 59.3C199.97 59.46 198.85 59.6 197.74 59.69L248.65 8.78L248.64 8.79Z" fill="white"/>
</g>
</g>
</g>
</svg>
