<svg width="206" height="200" viewBox="0 0 206 200" fill="none" xmlns="http://www.w3.org/2000/svg">
<g id="Group">
<g id="Modo de aislamiento">
<g id="Group_2">
<g id="Group_3">
<g id="Group_4">
<path id="Vector" d="M7.83005 113.88C7.50005 113.88 7.18005 113.74 6.93005 113.48C6.68005 113.23 6.55005 112.91 6.55005 112.59C6.55005 112.27 6.70005 111.95 6.95005 111.7C7.20005 111.45 7.51005 111.32 7.82005 111.32C8.13005 111.32 8.46005 111.46 8.72005 111.73C9.24005 112.26 9.23005 112.99 8.70005 113.5C8.45005 113.75 8.15005 113.88 7.82005 113.88H7.83005Z" fill="white"/>
</g>
<g id="Group_5">
<path id="Vector_2" d="M7.82004 175.81C7.50004 175.81 7.19004 175.67 6.93004 175.41C6.41004 174.89 6.41004 174.16 6.93004 173.64C7.18004 173.39 7.49004 173.25 7.81004 173.25C8.13004 173.25 8.45004 173.39 8.71004 173.64C8.97004 173.89 9.10004 174.2 9.10004 174.52C9.10004 174.84 8.96004 175.16 8.70004 175.41C8.44004 175.67 8.14004 175.8 7.82004 175.8V175.81Z" fill="white"/>
<path id="Vector_3" d="M7.83003 163.43C7.50003 163.43 7.18003 163.28 6.91003 163.01C6.66003 162.75 6.53003 162.44 6.54003 162.12C6.54003 161.8 6.69003 161.49 6.95003 161.23C7.20003 160.99 7.50003 160.86 7.81003 160.86C8.14003 160.86 8.47003 161.01 8.73003 161.27C8.98003 161.53 9.11002 161.83 9.10002 162.16C9.10002 162.48 8.94003 162.8 8.68003 163.05C8.43003 163.29 8.13003 163.42 7.82003 163.42L7.83003 163.43Z" fill="white"/>
<path id="Vector_4" d="M7.82001 151.04C7.50001 151.04 7.19001 150.9 6.93001 150.65C6.41001 150.13 6.40001 149.4 6.92001 148.88C7.17001 148.63 7.49001 148.49 7.81001 148.49C8.13001 148.49 8.45001 148.63 8.70001 148.88C8.95001 149.13 9.09001 149.45 9.09001 149.77C9.09001 150.09 8.95001 150.41 8.70001 150.66C8.44001 150.92 8.14001 151.06 7.81001 151.06L7.82001 151.04Z" fill="white"/>
<path id="Vector_5" d="M7.82006 138.66C7.50006 138.66 7.20006 138.53 6.95006 138.28C6.42006 137.76 6.40006 137.03 6.91006 136.51C7.17006 136.25 7.49006 136.1 7.81006 136.1C8.13006 136.1 8.43006 136.23 8.68006 136.48C9.21006 137 9.23006 137.73 8.72006 138.25C8.46006 138.51 8.14006 138.66 7.82006 138.66Z" fill="white"/>
<path id="Vector_6" d="M7.82003 126.27C7.50003 126.27 7.18002 126.13 6.92002 125.86C6.40002 125.33 6.41002 124.61 6.94002 124.09C7.19002 123.84 7.50003 123.71 7.82003 123.71C8.14003 123.71 8.47003 123.85 8.72003 124.11C8.97003 124.36 9.10002 124.68 9.10002 125C9.10002 125.32 8.95003 125.64 8.70003 125.89C8.45003 126.14 8.14003 126.27 7.83003 126.27H7.82003Z" fill="white"/>
</g>
</g>
<g id="Group_6">
<g id="Group_7">
<path id="Vector_7" d="M44.99 138.65C44.67 138.65 44.35 138.51 44.09 138.26C43.83 138.01 43.7 137.7 43.7 137.38C43.7 137.06 43.84 136.74 44.1 136.49C44.36 136.23 44.66 136.1 44.98 136.1C45.3 136.1 45.61 136.24 45.87 136.5C46.39 137.02 46.39 137.75 45.87 138.27C45.62 138.52 45.31 138.66 44.99 138.66V138.65Z" fill="white"/>
<path id="Vector_8" d="M20.22 113.88C19.9 113.88 19.58 113.74 19.32 113.48C19.07 113.23 18.93 112.92 18.93 112.6C18.93 112.28 19.07 111.96 19.33 111.71C19.59 111.46 19.89 111.32 20.21 111.32C20.53 111.32 20.84 111.46 21.1 111.72C21.62 112.24 21.62 112.97 21.1 113.49C20.85 113.74 20.54 113.88 20.22 113.88Z" fill="white"/>
<path id="Vector_9" d="M20.22 126.27C19.86 126.27 19.52 126.11 19.26 125.81C18.78 125.27 18.83 124.54 19.4 124.03C19.64 123.82 19.92 123.71 20.21 123.71C20.56 123.71 20.9 123.88 21.18 124.18C21.41 124.43 21.52 124.74 21.5 125.05C21.48 125.38 21.32 125.7 21.04 125.95C20.8 126.16 20.52 126.27 20.23 126.27H20.22Z" fill="white"/>
<path id="Vector_10" d="M20.22 138.65C19.89 138.65 19.57 138.5 19.31 138.24C18.8 137.71 18.81 136.98 19.34 136.46C19.59 136.21 19.89 136.08 20.2 136.08C20.51 136.08 20.85 136.23 21.11 136.49C21.36 136.75 21.49 137.06 21.49 137.38C21.49 137.7 21.34 138.01 21.08 138.27C20.83 138.51 20.53 138.64 20.21 138.64L20.22 138.65Z" fill="white"/>
<path id="Vector_11" d="M32.6 126.27C32.27 126.27 31.95 126.13 31.7 125.87C31.18 125.35 31.19 124.62 31.72 124.1C31.97 123.85 32.28 123.72 32.59 123.72C32.9 123.72 33.23 123.86 33.49 124.12C34.01 124.64 34 125.37 33.48 125.89C33.23 126.14 32.92 126.27 32.6 126.27Z" fill="white"/>
<path id="Vector_12" d="M20.22 151.04C19.89 151.04 19.57 150.9 19.32 150.64C19.07 150.39 18.94 150.08 18.94 149.76C18.94 149.44 19.09 149.12 19.34 148.86C19.59 148.61 19.9 148.48 20.21 148.48C20.52 148.48 20.85 148.62 21.11 148.89C21.63 149.42 21.62 150.15 21.09 150.66C20.84 150.91 20.53 151.04 20.21 151.04H20.22Z" fill="white"/>
<path id="Vector_13" d="M32.61 138.65C32.27 138.65 31.93 138.5 31.67 138.22C31.43 137.96 31.31 137.65 31.32 137.33C31.33 137.01 31.49 136.69 31.75 136.44C32 136.21 32.29 136.09 32.59 136.09C32.93 136.09 33.26 136.24 33.52 136.53C33.76 136.79 33.88 137.09 33.87 137.41C33.86 137.74 33.71 138.05 33.44 138.3C33.2 138.53 32.9 138.65 32.59 138.65H32.61Z" fill="white"/>
<path id="Vector_14" d="M20.22 163.42C19.88 163.42 19.55 163.27 19.28 162.99C18.78 162.46 18.81 161.73 19.36 161.21C19.61 160.98 19.9 160.86 20.2 160.86C20.54 160.86 20.87 161.02 21.13 161.3C21.37 161.56 21.49 161.86 21.48 162.18C21.48 162.51 21.32 162.82 21.05 163.07C20.81 163.3 20.51 163.42 20.2 163.42H20.22Z" fill="white"/>
<path id="Vector_15" d="M32.6 151.04C32.27 151.04 31.95 150.9 31.69 150.63C31.44 150.38 31.31 150.06 31.31 149.74C31.31 149.42 31.46 149.1 31.72 148.85C31.97 148.6 32.27 148.47 32.59 148.47C32.91 148.47 33.24 148.62 33.5 148.88C33.75 149.14 33.88 149.45 33.88 149.77C33.88 150.09 33.73 150.4 33.48 150.66C33.23 150.91 32.93 151.04 32.61 151.04H32.6Z" fill="white"/>
</g>
<g id="Group_8">
<path id="Vector_16" d="M44.99 175.81C44.66 175.81 44.34 175.66 44.08 175.4C43.57 174.87 43.58 174.14 44.11 173.63C44.36 173.39 44.66 173.26 44.98 173.26C45.3 173.26 45.63 173.4 45.89 173.67C46.14 173.92 46.27 174.24 46.26 174.56C46.26 174.88 46.11 175.2 45.85 175.45C45.6 175.7 45.3 175.83 44.99 175.83V175.81Z" fill="white"/>
<path id="Vector_17" d="M44.98 163.43C44.65 163.43 44.34 163.29 44.08 163.02C43.56 162.5 43.57 161.77 44.09 161.25C44.34 161 44.65 160.87 44.97 160.87C45.29 160.87 45.62 161.01 45.87 161.27C46.39 161.79 46.38 162.52 45.85 163.05C45.6 163.3 45.29 163.43 44.98 163.43Z" fill="white"/>
<path id="Vector_18" d="M32.6 175.81C32.28 175.81 31.97 175.67 31.72 175.42C31.2 174.9 31.19 174.17 31.71 173.65C31.96 173.4 32.28 173.26 32.6 173.26C32.92 173.26 33.23 173.4 33.49 173.65C34.01 174.17 34.02 174.9 33.49 175.42C33.23 175.68 32.93 175.82 32.6 175.82V175.81Z" fill="white"/>
<path id="Vector_19" d="M44.99 151.04C44.65 151.04 44.32 150.88 44.06 150.6C43.82 150.34 43.7001 150.04 43.7101 149.72C43.7201 149.39 43.8701 149.08 44.1401 148.83C44.3801 148.6 44.68 148.48 44.99 148.48C45.33 148.48 45.6701 148.63 45.9301 148.91C46.1701 149.16 46.29 149.48 46.28 149.8C46.27 150.12 46.11 150.44 45.85 150.69C45.6 150.92 45.3101 151.04 45.0101 151.04H44.99Z" fill="white"/>
<path id="Vector_20" d="M32.6 163.43C32.28 163.43 31.97 163.29 31.71 163.03C31.19 162.51 31.19 161.78 31.71 161.26C31.96 161.01 32.27 160.87 32.59 160.87C32.91 160.87 33.23 161.01 33.49 161.27C33.74 161.52 33.88 161.83 33.88 162.15C33.88 162.47 33.74 162.79 33.48 163.04C33.22 163.3 32.92 163.43 32.6 163.43Z" fill="white"/>
<path id="Vector_21" d="M20.21 175.81C19.88 175.81 19.57 175.67 19.31 175.4C18.79 174.88 18.8 174.15 19.32 173.63C19.57 173.38 19.88 173.25 20.2 173.25C20.52 173.25 20.85 173.39 21.1 173.65C21.35 173.9 21.48 174.22 21.48 174.54C21.48 174.86 21.33 175.18 21.08 175.43C20.83 175.68 20.52 175.81 20.21 175.81Z" fill="white"/>
</g>
</g>
<g id="Group_9">
<g id="Group_10">
<path id="Vector_22" d="M7.82007 200.4C7.50007 200.4 7.19007 200.26 6.93007 200.01C6.41007 199.49 6.40007 198.76 6.92007 198.24C7.17007 197.99 7.49007 197.85 7.81007 197.85C8.13007 197.85 8.45007 197.99 8.70007 198.24C8.95007 198.49 9.09007 198.81 9.09007 199.13C9.09007 199.45 8.95007 199.77 8.70007 200.02C8.44007 200.28 8.13007 200.42 7.81007 200.42L7.82007 200.4Z" fill="white"/>
<path id="Vector_23" d="M7.82006 188.01C7.50006 188.01 7.20006 187.88 6.95006 187.63C6.42006 187.11 6.40006 186.38 6.91006 185.86C7.16006 185.6 7.49006 185.45 7.81006 185.45C8.13006 185.45 8.43006 185.58 8.68006 185.83C9.21006 186.35 9.23006 187.08 8.72006 187.6C8.46006 187.86 8.14006 188.01 7.82006 188.01Z" fill="white"/>
</g>
</g>
<g id="Group_11">
<path id="Vector_24" d="M20.22 188.01C19.89 188.01 19.57 187.86 19.31 187.6C18.8 187.07 18.81 186.34 19.34 185.82C19.59 185.57 19.89 185.44 20.2 185.44C20.51 185.44 20.85 185.59 21.11 185.85C21.62 186.38 21.61 187.11 21.08 187.62C20.83 187.86 20.53 187.99 20.21 187.99L20.22 188.01Z" fill="white"/>
<path id="Vector_25" d="M20.22 200.39C19.89 200.39 19.57 200.25 19.32 199.99C19.07 199.74 18.94 199.43 18.94 199.11C18.94 198.79 19.09 198.47 19.34 198.22C19.59 197.97 19.9 197.84 20.21 197.84C20.52 197.84 20.85 197.98 21.11 198.25C21.63 198.78 21.62 199.51 21.09 200.02C20.84 200.27 20.53 200.4 20.21 200.4L20.22 200.39Z" fill="white"/>
<path id="Vector_26" d="M32.61 188.01C32.27 188.01 31.93 187.86 31.67 187.58C31.43 187.33 31.31 187.01 31.32 186.69C31.33 186.37 31.49 186.05 31.75 185.8C32 185.57 32.29 185.45 32.59 185.45C32.93 185.45 33.26 185.61 33.52 185.89C33.76 186.15 33.88 186.45 33.87 186.77C33.86 187.1 33.71 187.41 33.44 187.66C33.2 187.89 32.9 188.01 32.6 188.01H32.61Z" fill="white"/>
</g>
</g>
<g id="Group_12" style="mix-blend-mode:overlay" opacity="0.45">
<path id="Vector_27" d="M100.89 28.4C103.39 23.95 106.5 19.85 110.15 16.2C113.8 12.55 117.9 9.44 122.35 6.94L100.89 28.4Z" fill="white"/>
<path id="Vector_28" d="M93.9501 50.91C94.0501 49.8 94.1801 48.68 94.3401 47.58L141.52 0.39C142.62 0.23 143.74 0.09 144.85 0L93.9401 50.91H93.9501Z" fill="white"/>
<path id="Vector_29" d="M94.6201 65.8C94.4701 64.97 94.3401 64.11 94.2201 63.26L157.2 0.270004C158.05 0.380004 158.91 0.520004 159.74 0.670004L94.6101 65.8H94.6201Z" fill="white"/>
<path id="Vector_30" d="M98.1901 77.79C97.9001 77.1 97.6201 76.4 97.3501 75.69L169.64 3.39999C170.34 3.66999 171.05 3.94999 171.74 4.23999L98.1901 77.79Z" fill="white"/>
<path id="Vector_31" d="M103.73 87.82C103.33 87.25 102.94 86.66 102.55 86.06L180 8.60001C180.6 8.99001 181.19 9.38001 181.76 9.78001L103.72 87.82H103.73Z" fill="white"/>
<path id="Vector_32" d="M110.89 96.22C110.64 95.98 110.39 95.74 110.15 95.49C109.9 95.24 109.66 95 109.42 94.75L188.69 15.47C188.94 15.71 189.19 15.95 189.43 16.2C189.68 16.45 189.92 16.69 190.16 16.94L110.89 96.21V96.22Z" fill="white"/>
<path id="Vector_33" d="M119.59 103.09C118.98 102.7 118.39 102.31 117.83 101.91L195.86 23.87C196.25 24.43 196.64 25.02 197.04 25.63L119.59 103.08V103.09Z" fill="white"/>
<path id="Vector_34" d="M129.94 108.29C129.23 108.02 128.53 107.74 127.84 107.45L201.4 33.9C201.69 34.59 201.98 35.29 202.24 36L129.94 108.3V108.29Z" fill="white"/>
<path id="Vector_35" d="M142.38 111.42C141.53 111.31 140.68 111.17 139.84 111.02L204.97 45.89C205.12 46.73 205.25 47.58 205.37 48.43L142.39 111.41L142.38 111.42Z" fill="white"/>
<path id="Vector_36" d="M205.64 60.79C205.54 61.91 205.41 63.02 205.25 64.12L158.07 111.3C156.97 111.46 155.85 111.6 154.74 111.69L205.65 60.78L205.64 60.79Z" fill="white"/>
<path id="Vector_37" d="M198.7 83.29C196.2 87.74 193.09 91.84 189.44 95.49C185.79 99.14 181.69 102.25 177.24 104.75L198.7 83.29Z" fill="white"/>
</g>
</g>
</g>
</svg>
