<svg width="134" height="133" viewBox="0 0 134 133" fill="none" xmlns="http://www.w3.org/2000/svg">
<g id="Group">
<g id="Group_2">
<g id="Group_3">
<path id="Vector" d="M38.9931 40.7561C38.5158 40.7561 38.0385 40.5472 37.6656 40.1744C37.2927 39.8015 37.0839 39.3391 37.0839 38.8618C37.0839 38.3845 37.2927 37.9072 37.6805 37.5343C38.0683 37.1465 38.5158 36.9526 38.9931 36.9526C39.4704 36.9526 39.9328 37.1614 40.3206 37.5492C41.0962 38.3248 41.0962 39.4137 40.3206 40.1893C39.9477 40.5622 39.4853 40.771 39.008 40.771L38.9931 40.7561Z" fill="white"/>
<path id="Vector_2" d="M57.4585 22.2756C56.9663 22.2756 56.4741 22.0519 56.0863 21.6641C55.7134 21.2762 55.5195 20.8288 55.5344 20.3366C55.5344 19.8593 55.7731 19.382 56.1609 19.0091C56.5338 18.6511 56.9812 18.4572 57.4436 18.4572C57.9358 18.4572 58.4131 18.6809 58.8159 19.0837C59.1888 19.4715 59.3827 19.9338 59.3677 20.4111C59.3677 20.8884 59.144 21.3508 58.7562 21.7237C58.3833 22.0817 57.9359 22.2756 57.4735 22.2756H57.4585Z" fill="white"/>
<path id="Vector_3" d="M75.9391 3.81005C75.4469 3.81005 74.9696 3.60123 74.5967 3.21342C74.2238 2.84053 74.0299 2.36323 74.0299 1.88593C74.0299 1.40863 74.2537 0.931331 74.6265 0.55844C74.9994 0.185549 75.4618 -0.00836182 75.9242 -0.00836182C76.3866 -0.00836182 76.8788 0.200463 77.2666 0.603185C78.0422 1.39371 78.0273 2.48255 77.2368 3.24325C76.8639 3.61614 76.4164 3.81005 75.9242 3.81005H75.9391Z" fill="white"/>
<path id="Vector_4" d="M2.04701 40.7561C1.55479 40.7561 1.07749 40.5323 0.689679 40.1445C-0.0710181 39.354 -0.0561043 38.2652 0.734424 37.4896C1.10732 37.1167 1.55479 36.9228 2.01717 36.9228C2.47955 36.9228 2.98669 37.1465 3.3745 37.5343C3.74739 37.9221 3.9413 38.3845 3.9413 38.8618C3.9413 39.3391 3.71756 39.8015 3.32975 40.1893C2.95686 40.5473 2.50938 40.7412 2.03208 40.7412L2.04701 40.7561Z" fill="white"/>
<path id="Vector_5" d="M20.5125 22.2756C20.0203 22.2756 19.543 22.0668 19.1701 21.679C18.3945 20.9034 18.4094 19.8145 19.1999 19.0389C19.5728 18.666 20.0352 18.4721 20.4976 18.4721C20.96 18.4721 21.4522 18.6809 21.84 19.0837C22.6156 19.8593 22.6007 20.9481 21.8251 21.7237C21.4522 22.0966 20.9898 22.2905 20.5125 22.2905V22.2756Z" fill="white"/>
<path id="Vector_6" d="M38.9931 3.81005C38.5158 3.81005 38.0534 3.60123 37.6656 3.22834C36.89 2.45273 36.875 1.36388 37.6656 0.588266C38.0534 0.200459 38.5009 -0.00836182 38.9931 -0.00836182C39.4853 -0.00836182 39.9328 0.200456 40.3206 0.573347C41.0962 1.34896 41.1111 2.43781 40.3355 3.21342C39.9626 3.58631 39.4853 3.79513 39.008 3.79513L38.9931 3.81005Z" fill="white"/>
<path id="Vector_7" d="M2.04708 59.2217C1.55486 59.2217 1.07755 59.0128 0.704657 58.625C0.331766 58.2521 0.137878 57.7748 0.137878 57.2975C0.137878 56.8202 0.361604 56.3429 0.734495 55.97C1.10739 55.5971 1.56976 55.4033 2.03215 55.4033C2.49453 55.4033 2.98676 55.6121 3.37457 56.0148C4.15018 56.8053 4.13526 57.8942 3.34473 58.6549C2.97184 59.0277 2.50945 59.2217 2.03215 59.2217H2.04708Z" fill="white"/>
<path id="Vector_8" d="M20.5125 40.7561C20.0054 40.7561 19.4983 40.5324 19.1105 40.1147C18.3647 39.3242 18.4095 38.2353 19.2298 37.4597C19.6027 37.1167 20.0353 36.9377 20.4827 36.9377C20.9899 36.9377 21.4821 37.1614 21.8699 37.594C22.2278 37.9818 22.4068 38.4293 22.3919 38.9066C22.377 39.3988 22.1533 39.8612 21.7505 40.234C21.3926 40.5771 20.9451 40.7561 20.4827 40.7561H20.5125Z" fill="white"/>
<path id="Vector_9" d="M38.993 22.2756C38.5157 22.2756 38.0384 22.0668 37.6506 21.679C37.2777 21.3061 37.0689 20.8437 37.0689 20.3664C37.0689 19.8891 37.2777 19.4118 37.6655 19.0389C38.0533 18.6511 38.5008 18.4572 38.9781 18.4572C39.4554 18.4572 39.9178 18.666 40.3056 19.0538C41.0812 19.8294 41.0812 20.9183 40.3056 21.6939C39.9327 22.0668 39.4703 22.2756 38.993 22.2756Z" fill="white"/>
<path id="Vector_10" d="M57.4586 3.81005C56.9664 3.81005 56.4891 3.60123 56.1162 3.21343C55.7433 2.84053 55.5494 2.37814 55.5494 1.90084C55.5494 1.42354 55.7582 0.946242 56.146 0.573351C56.5189 0.20046 56.9813 0.00656128 57.4437 0.00656128C57.9061 0.00656128 58.3983 0.215386 58.7861 0.618108C59.5617 1.39372 59.5468 2.48256 58.7712 3.25817C58.3983 3.63106 57.9359 3.82496 57.4586 3.82496V3.81005Z" fill="white"/>
<path id="Vector_11" d="M2.047 77.7021C1.53987 77.7021 1.04765 77.4784 0.644927 77.0607C0.286952 76.6729 0.107955 76.2105 0.122871 75.7332C0.137786 75.2559 0.376448 74.7786 0.764255 74.4057C1.13715 74.0627 1.56969 73.8837 2.01716 73.8837C2.52429 73.8837 3.01652 74.1223 3.40433 74.54C3.7623 74.9278 3.94128 75.3753 3.92636 75.8526C3.91145 76.3448 3.68772 76.8072 3.285 77.18C2.92703 77.5231 2.47955 77.7021 2.01716 77.7021H2.047Z" fill="white"/>
<path id="Vector_12" d="M20.5126 59.2217C20.0204 59.2217 19.5431 59.0128 19.1553 58.6101C18.7824 58.2372 18.5885 57.7599 18.5885 57.2826C18.5885 56.8053 18.8122 56.328 19.2 55.9551C19.5729 55.5822 20.0204 55.3883 20.4977 55.3883C20.975 55.3883 21.4672 55.6121 21.855 55.9999C22.6306 56.7904 22.6008 57.8793 21.8252 58.6399C21.4523 59.0128 21.0048 59.2067 20.5275 59.2067L20.5126 59.2217Z" fill="white"/>
</g>
<g id="Group_4">
<path id="Vector_13" d="M75.9242 96.1826C75.4469 96.1826 74.9845 95.9738 74.5967 95.5859C73.8211 94.8103 73.8211 93.7215 74.5967 92.9459C74.9696 92.573 75.4319 92.3642 75.9092 92.3642C76.3865 92.3642 76.8638 92.573 77.2516 92.9459C77.6245 93.3188 77.8334 93.7812 77.8334 94.2585C77.8334 94.7358 77.6245 95.2131 77.2367 95.5859C76.8489 95.9738 76.4015 96.1677 75.9242 96.1677V96.1826Z" fill="white"/>
<path id="Vector_14" d="M75.9391 77.7021C75.4469 77.7021 74.9696 77.4784 74.5668 77.0757C74.1939 76.6879 74 76.2255 74.015 75.7482C74.015 75.2709 74.2387 74.8085 74.6265 74.4207C74.9994 74.0627 75.4469 73.8688 75.9093 73.8688C76.4015 73.8688 76.8937 74.0925 77.2815 74.4804C77.6544 74.8682 77.8483 75.3156 77.8334 75.8078C77.8334 76.2851 77.5947 76.7624 77.2069 77.1353C76.834 77.4933 76.3865 77.6872 75.9242 77.6872L75.9391 77.7021Z" fill="white"/>
<path id="Vector_15" d="M57.4586 96.1826C56.9813 96.1826 56.5189 95.9738 56.1311 95.5859C55.3555 94.8103 55.3555 93.7215 56.1311 92.9459C56.504 92.573 56.9664 92.3642 57.4437 92.3642C57.921 92.3642 58.3983 92.573 58.7861 92.9608C59.159 93.3337 59.3678 93.7961 59.3678 94.2734C59.3678 94.7507 59.159 95.228 58.7712 95.6009C58.3834 95.9738 57.9359 96.1826 57.4586 96.1826Z" fill="white"/>
<path id="Vector_16" d="M75.9241 59.2366C75.4468 59.2366 74.9844 59.0277 74.5966 58.6548C73.821 57.8792 73.8061 56.7904 74.5817 56.0148C74.9546 55.6419 75.4319 55.4331 75.9092 55.4331C76.3865 55.4331 76.8638 55.6419 77.2367 56.0148C77.6096 56.3877 77.8184 56.865 77.8184 57.3423C77.8184 57.8196 77.6096 58.2969 77.2367 58.6698C76.8489 59.0576 76.4014 59.2664 75.9092 59.2664L75.9241 59.2366Z" fill="white"/>
<path id="Vector_17" d="M57.4586 77.7021C56.9365 77.7021 56.4145 77.4486 56.0117 77.0011C55.6687 76.6282 55.5046 76.1658 55.5345 75.7034C55.5643 75.2112 55.8029 74.7339 56.2206 74.361C56.5785 74.0478 56.9962 73.8837 57.4287 73.8837C57.9657 73.8837 58.4728 74.1224 58.8606 74.5698C59.5766 75.3753 59.502 76.4641 58.6518 77.2248C58.2938 77.5381 57.8762 77.7021 57.4437 77.7021H57.4586Z" fill="white"/>
<path id="Vector_18" d="M38.9782 96.1826C38.486 96.1826 38.0087 95.9588 37.6209 95.571C37.248 95.1832 37.0541 94.7209 37.0541 94.2436C37.0541 93.7663 37.2778 93.3039 37.6656 92.9161C38.0385 92.5581 38.486 92.3642 38.9633 92.3642C39.4406 92.3642 39.9328 92.573 40.3206 92.9757C40.6935 93.3486 40.8874 93.8259 40.8725 94.3032C40.8725 94.7805 40.6487 95.2578 40.2609 95.6307C39.888 96.0036 39.4406 96.1975 38.9782 96.1975V96.1826Z" fill="white"/>
<path id="Vector_19" d="M75.9242 40.7561C75.4469 40.7561 74.9994 40.5622 74.6266 40.1893C73.836 39.4137 73.8062 38.3248 74.5669 37.5492C74.9547 37.1614 75.432 36.9377 75.9093 36.9377C76.3866 36.9377 76.8341 37.1316 77.207 37.5045C77.9975 38.2801 78.0273 39.3689 77.2666 40.1445C76.8788 40.5323 76.4015 40.7561 75.9242 40.7561Z" fill="white"/>
<path id="Vector_20" d="M57.4586 59.2366C56.9664 59.2366 56.4891 59.0128 56.1013 58.625C55.7284 58.2372 55.5345 57.7748 55.5345 57.2975C55.5345 56.8202 55.7582 56.3578 56.146 55.97C56.5189 55.6121 56.9664 55.4182 57.4437 55.4182C57.921 55.4182 58.4132 55.6419 58.801 56.0297C59.5617 56.8202 59.5468 57.9091 58.7563 58.6698C58.3834 59.0427 57.9359 59.2366 57.4735 59.2366H57.4586Z" fill="white"/>
<path id="Vector_21" d="M38.9782 77.7021C38.486 77.7021 38.0236 77.4933 37.6358 77.0906C36.8602 76.3001 36.8751 75.2261 37.6507 74.4505C38.0236 74.0776 38.4859 73.8837 38.9483 73.8837C39.4107 73.8837 39.9179 74.0925 40.2908 74.4804C41.0664 75.256 41.0514 76.3448 40.2609 77.1204C39.888 77.4933 39.4256 77.6872 38.9633 77.6872L38.9782 77.7021Z" fill="white"/>
<path id="Vector_22" d="M20.5126 96.1826C20.0353 96.1826 19.5729 95.9737 19.1851 95.6009C18.4095 94.8252 18.3946 93.7364 19.1702 92.9608C19.5431 92.5879 20.0204 92.3791 20.4977 92.3791C20.975 92.3791 21.4374 92.5879 21.8252 92.9608C22.6008 93.7364 22.6157 94.8252 21.8252 95.6009C21.4374 95.9887 20.9899 96.1975 20.4977 96.1975L20.5126 96.1826Z" fill="white"/>
<path id="Vector_23" d="M75.9241 22.2905C75.4468 22.2905 74.9695 22.0817 74.5817 21.679C73.8061 20.8884 73.821 19.8145 74.6116 19.0389C74.9844 18.666 75.4468 18.4721 75.9241 18.4721C76.4014 18.4721 76.8936 18.6809 77.2665 19.0687C77.6394 19.4416 77.8333 19.9189 77.8333 20.3962C77.8333 20.8735 77.6096 21.3508 77.2367 21.7237C76.8638 22.0966 76.4014 22.2905 75.939 22.2905H75.9241Z" fill="white"/>
<path id="Vector_24" d="M57.4585 40.7561C56.9663 40.7561 56.504 40.5473 56.1161 40.1445C55.3405 39.3689 55.3555 38.2801 56.146 37.5045C56.5189 37.1316 56.9812 36.9377 57.4585 36.9377C57.9358 36.9377 58.4281 37.1465 58.801 37.5343C59.1739 37.9072 59.3677 38.3845 59.3677 38.8618C59.3677 39.3391 59.144 39.8164 58.7711 40.1893C58.3982 40.5622 57.9359 40.7561 57.4735 40.7561H57.4585Z" fill="white"/>
<path id="Vector_25" d="M38.9931 59.2366C38.486 59.2366 37.9937 58.9979 37.6059 58.5803C37.248 58.1925 37.069 57.745 37.0839 57.2677C37.0988 56.7755 37.3225 56.3131 37.7253 55.9402C38.0832 55.5972 38.5307 55.4182 38.9931 55.4182C39.5002 55.4182 40.0073 55.6419 40.3951 56.0595C40.7531 56.4324 40.9321 56.9097 40.9172 57.387C40.9023 57.8643 40.6636 58.3416 40.2758 58.7145C39.9029 59.0576 39.4704 59.2366 39.0229 59.2366H38.9931Z" fill="white"/>
<path id="Vector_26" d="M20.5125 77.7021C20.0352 77.7021 19.5728 77.4933 19.185 77.1055C18.4094 76.3299 18.4094 75.2411 19.185 74.4654C19.5579 74.0926 20.0203 73.8837 20.4976 73.8837C20.9749 73.8837 21.4522 74.0925 21.84 74.4804C22.2279 74.8682 22.4218 75.3156 22.4218 75.7929C22.4218 76.2702 22.2129 76.7475 21.8251 77.1204C21.4373 77.5082 20.9898 77.7021 20.5125 77.7021Z" fill="white"/>
<path id="Vector_27" d="M2.03206 96.1826C1.53985 96.1826 1.07747 95.9738 0.689666 95.571C-0.0859468 94.7954 -0.0710394 93.7066 0.704574 92.931C1.07746 92.5581 1.53986 92.3642 2.01716 92.3642C2.49446 92.3642 2.98666 92.573 3.35956 92.9608C3.73245 93.3337 3.92636 93.7961 3.92636 94.2734C3.92636 94.7507 3.71755 95.228 3.32974 95.6009C2.95685 95.9738 2.49445 96.1677 2.03206 96.1677V96.1826Z" fill="white"/>
</g>
</g>
<g id="Group_5">
<g id="Group_6">
<path id="Vector_28" d="M131.366 40.7561C130.888 40.7561 130.411 40.5472 130.023 40.1744C129.65 39.8015 129.441 39.3391 129.441 38.8618C129.441 38.3845 129.65 37.9072 130.038 37.5343C130.426 37.1465 130.873 36.9526 131.351 36.9526C131.828 36.9526 132.29 37.1614 132.678 37.5492C133.454 38.3248 133.454 39.4137 132.678 40.1893C132.305 40.5622 131.843 40.771 131.366 40.771V40.7561Z" fill="white"/>
<path id="Vector_29" d="M94.4195 3.81005C93.9422 3.81005 93.4649 3.60123 93.0771 3.21342C92.7042 2.84053 92.4954 2.37814 92.4954 1.90084C92.4954 1.42354 92.7042 0.946238 93.092 0.573347C93.4798 0.200456 93.9273 -0.00836182 94.4046 -0.00836182C94.8819 -0.00836182 95.3443 0.200459 95.7321 0.588266C96.5077 1.36388 96.5077 2.45273 95.7321 3.22834C95.3592 3.60123 94.8968 3.81005 94.4195 3.81005Z" fill="white"/>
<path id="Vector_30" d="M94.4195 22.2756C93.8826 22.2756 93.3754 22.0369 92.9876 21.5895C92.2717 20.784 92.3463 19.6952 93.1965 18.9345C93.5544 18.6213 93.9721 18.4572 94.4046 18.4572C94.9267 18.4572 95.4338 18.7108 95.8514 19.1582C96.1945 19.5311 96.3586 19.9935 96.3287 20.4559C96.2989 20.9481 96.0603 21.4254 95.6426 21.7983C95.2846 22.1115 94.867 22.2756 94.4345 22.2756H94.4195Z" fill="white"/>
<path id="Vector_31" d="M94.4195 40.7561C93.9273 40.7561 93.45 40.5323 93.0622 40.1445C92.3015 39.354 92.3164 38.2652 93.1069 37.4896C93.4798 37.1167 93.9273 36.9228 94.3897 36.9228C94.8521 36.9228 95.3592 37.1465 95.747 37.5343C96.1199 37.9221 96.3138 38.3845 96.3138 38.8618C96.3138 39.3391 96.09 39.8015 95.7022 40.1893C95.3293 40.5473 94.8819 40.7412 94.4046 40.7412L94.4195 40.7561Z" fill="white"/>
<path id="Vector_32" d="M112.885 22.2756C112.393 22.2756 111.916 22.0668 111.543 21.679C110.767 20.9034 110.782 19.8145 111.572 19.0389C111.945 18.666 112.408 18.4721 112.87 18.4721C113.333 18.4721 113.825 18.6809 114.213 19.0687C114.988 19.8444 114.973 20.9332 114.198 21.7088C113.825 22.0817 113.362 22.2756 112.9 22.2756H112.885Z" fill="white"/>
<path id="Vector_33" d="M94.4195 59.2217C93.9273 59.2217 93.45 59.0128 93.0771 58.625C92.7042 58.2521 92.5103 57.7898 92.5103 57.3125C92.5103 56.8352 92.7341 56.3578 93.107 55.97C93.4798 55.5971 93.9422 55.4033 94.4046 55.4033C94.867 55.4033 95.3592 55.6121 95.747 56.0148C96.5226 56.8053 96.5077 57.8942 95.7172 58.6549C95.3443 59.0277 94.8819 59.2217 94.4046 59.2217H94.4195Z" fill="white"/>
<path id="Vector_34" d="M112.9 40.7561C112.393 40.7561 111.886 40.5324 111.498 40.1147C111.14 39.7269 110.961 39.2645 110.976 38.7872C110.991 38.3099 111.229 37.8326 111.617 37.4597C111.99 37.1167 112.423 36.9377 112.87 36.9377C113.377 36.9377 113.869 37.1614 114.257 37.594C114.615 37.9818 114.794 38.4293 114.779 38.9066C114.764 39.3988 114.541 39.8612 114.138 40.234C113.78 40.5771 113.333 40.7561 112.87 40.7561H112.9Z" fill="white"/>
<path id="Vector_35" d="M94.4195 77.7021C93.9124 77.7021 93.4201 77.4784 93.0174 77.0607C92.2716 76.2702 92.3164 75.1814 93.1367 74.4057C93.5096 74.0627 93.9422 73.8837 94.3897 73.8837C94.8968 73.8837 95.389 74.1223 95.7768 74.54C96.1348 74.9278 96.3138 75.3753 96.2989 75.8526C96.2989 76.3448 96.0602 76.8072 95.6575 77.18C95.2995 77.5231 94.8521 77.7021 94.3897 77.7021H94.4195Z" fill="white"/>
<path id="Vector_36" d="M112.885 59.2217C112.393 59.2217 111.916 59.0128 111.528 58.6101C111.155 58.2372 110.961 57.7599 110.961 57.2826C110.961 56.8053 111.185 56.328 111.572 55.9551C111.945 55.5822 112.393 55.3883 112.87 55.3883C113.347 55.3883 113.84 55.6121 114.227 55.9999C114.6 56.3877 114.794 56.8501 114.794 57.3274C114.794 57.8047 114.571 58.2671 114.198 58.6549C113.825 59.0277 113.377 59.2217 112.9 59.2217H112.885Z" fill="white"/>
</g>
<g id="Group_7">
<path id="Vector_37" d="M131.366 96.1826C130.873 96.1826 130.396 95.9588 130.008 95.571C129.248 94.7805 129.262 93.6916 130.053 92.9309C130.426 92.573 130.873 92.3791 131.351 92.3791C131.828 92.3791 132.32 92.5879 132.708 92.9906C133.081 93.3635 133.275 93.8408 133.26 94.3181C133.26 94.7954 133.036 95.2727 132.648 95.6456C132.275 96.0185 131.828 96.2124 131.366 96.2124V96.1826Z" fill="white"/>
<path id="Vector_38" d="M131.351 77.7021C130.858 77.7021 130.396 77.4933 130.008 77.0905C129.233 76.3149 129.248 75.2261 130.023 74.4505C130.396 74.0776 130.858 73.8837 131.321 73.8837C131.783 73.8837 132.29 74.0925 132.663 74.4803C133.439 75.2559 133.424 76.3448 132.633 77.1204C132.261 77.4933 131.798 77.6872 131.336 77.6872L131.351 77.7021Z" fill="white"/>
<path id="Vector_39" d="M112.885 96.1826C112.408 96.1826 111.945 95.9737 111.573 95.6009C110.797 94.8252 110.782 93.7364 111.558 92.9608C111.931 92.5879 112.408 92.3791 112.885 92.3791C113.362 92.3791 113.825 92.5879 114.213 92.9608C114.988 93.7364 115.003 94.8252 114.213 95.6009C113.825 95.9887 113.377 96.1975 112.885 96.1975V96.1826Z" fill="white"/>
<path id="Vector_40" d="M131.366 59.2365C130.858 59.2365 130.366 58.9979 129.978 58.5802C129.62 58.1924 129.441 57.745 129.456 57.2677C129.471 56.7755 129.695 56.3131 130.098 55.9402C130.456 55.5971 130.903 55.4181 131.366 55.4181C131.873 55.4181 132.38 55.6419 132.768 56.0595C133.126 56.4324 133.305 56.9097 133.29 57.387C133.275 57.8643 133.036 58.3416 132.648 58.7145C132.275 59.0575 131.843 59.2365 131.395 59.2365H131.366Z" fill="white"/>
<path id="Vector_41" d="M112.885 77.7021C112.408 77.7021 111.945 77.4933 111.558 77.1054C110.782 76.3298 110.782 75.241 111.558 74.4654C111.93 74.0925 112.393 73.8837 112.87 73.8837C113.347 73.8837 113.825 74.0925 114.213 74.4803C114.585 74.8532 114.794 75.3156 114.794 75.7929C114.794 76.2702 114.585 76.7475 114.198 77.1204C113.81 77.5082 113.362 77.7021 112.885 77.7021Z" fill="white"/>
<path id="Vector_42" d="M94.4046 96.1825C93.9124 96.1825 93.45 95.9737 93.0622 95.571C92.2866 94.7954 92.3015 93.7065 93.0771 92.9309C93.45 92.558 93.9124 92.3641 94.3897 92.3641C94.867 92.3641 95.3592 92.5729 95.7321 92.9608C96.105 93.3336 96.2989 93.8109 96.2989 94.2882C96.2989 94.7655 96.0752 95.2428 95.7023 95.6157C95.3294 95.9886 94.867 96.1825 94.4046 96.1825Z" fill="white"/>
</g>
</g>
<g id="Group_8">
<g id="Group_9">
<path id="Vector_43" d="M38.993 114.365C38.5157 114.365 38.0384 114.156 37.6655 113.783C37.2926 113.41 37.0838 112.948 37.0838 112.47C37.0838 111.993 37.2926 111.516 37.6804 111.143C38.0682 110.755 38.5157 110.561 38.993 110.561C39.4703 110.561 39.9327 110.77 40.3205 111.158C41.0961 111.933 41.0961 113.022 40.3205 113.798C39.9476 114.171 39.4852 114.38 39.0079 114.38L38.993 114.365Z" fill="white"/>
<path id="Vector_44" d="M20.5126 114.365C20.0054 114.365 19.4983 114.141 19.1105 113.723C18.7525 113.336 18.5735 112.873 18.5884 112.396C18.6034 111.919 18.842 111.441 19.2298 111.068C19.6027 110.725 20.0353 110.546 20.4827 110.546C20.9899 110.546 21.4821 110.77 21.8699 111.203C22.2279 111.59 22.4069 112.038 22.3919 112.515C22.377 113.007 22.1533 113.47 21.7506 113.843C21.3926 114.186 20.9451 114.365 20.4976 114.365H20.5126Z" fill="white"/>
</g>
<g id="Group_10">
<path id="Vector_45" d="M75.9242 132.845C75.4469 132.845 74.9845 132.636 74.5967 132.264C73.8211 131.488 73.8062 130.399 74.5818 129.623C74.9547 129.251 75.432 129.042 75.9093 129.042C76.3866 129.042 76.8639 129.251 77.2368 129.623C77.6097 129.996 77.8185 130.474 77.8185 130.951C77.8185 131.428 77.6097 131.906 77.2368 132.278C76.849 132.666 76.4015 132.875 75.9093 132.875L75.9242 132.845Z" fill="white"/>
<path id="Vector_46" d="M75.9242 114.38C75.4469 114.38 74.9994 114.186 74.6266 113.813C73.836 113.037 73.8062 111.948 74.5669 111.173C74.9398 110.785 75.432 110.561 75.9093 110.561C76.3866 110.561 76.8341 110.755 77.207 111.128C77.9975 111.904 78.0273 112.992 77.2666 113.768C76.8788 114.156 76.4015 114.38 75.9242 114.38Z" fill="white"/>
<path id="Vector_47" d="M57.4587 132.845C56.9664 132.845 56.4891 132.621 56.1013 132.234C55.7284 131.846 55.5345 131.383 55.5345 130.906C55.5345 130.429 55.7583 129.966 56.1461 129.579C56.519 129.221 56.9664 129.027 57.4437 129.027C57.921 129.027 58.4133 129.251 58.8011 129.638C59.5618 130.429 59.5469 131.518 58.7563 132.293C58.3834 132.666 57.936 132.86 57.4736 132.86L57.4587 132.845Z" fill="white"/>
<path id="Vector_48" d="M57.4587 114.38C56.9664 114.38 56.5041 114.171 56.1163 113.768C55.3407 112.978 55.3556 111.889 56.1461 111.128C56.519 110.755 56.9814 110.561 57.4587 110.561C57.936 110.561 58.4282 110.77 58.8011 111.158C59.174 111.531 59.3679 111.993 59.3679 112.47C59.3679 112.948 59.1441 113.425 58.7712 113.798C58.3984 114.171 57.936 114.365 57.4736 114.365L57.4587 114.38Z" fill="white"/>
<path id="Vector_49" d="M38.9931 132.845C38.486 132.845 37.9937 132.621 37.6059 132.189C37.248 131.801 37.069 131.354 37.0839 130.876C37.0988 130.384 37.3225 129.922 37.7253 129.549C38.0832 129.206 38.5307 129.027 38.9782 129.027C39.4853 129.027 39.9924 129.251 40.3802 129.668C40.7382 130.056 40.9172 130.518 40.9023 130.996C40.8874 131.473 40.6487 131.95 40.2609 132.323C39.888 132.666 39.4555 132.845 39.008 132.845H38.9931Z" fill="white"/>
</g>
</g>
<g id="Group_11">
<path id="Vector_50" d="M94.4195 114.365C93.9273 114.365 93.45 114.141 93.0622 113.753C92.3015 112.963 92.3164 111.874 93.1069 111.098C93.4798 110.725 93.9273 110.531 94.3897 110.531C94.8521 110.531 95.3592 110.755 95.747 111.143C96.5077 111.933 96.4928 113.022 95.7022 113.783C95.3293 114.141 94.8819 114.335 94.4046 114.335L94.4195 114.365Z" fill="white"/>
<path id="Vector_51" d="M94.4195 132.845C93.9273 132.845 93.45 132.636 93.0771 132.249C92.7042 131.876 92.5103 131.413 92.5103 130.936C92.5103 130.459 92.7341 129.981 93.107 129.609C93.4798 129.236 93.9422 129.042 94.4046 129.042C94.867 129.042 95.3592 129.251 95.747 129.653C96.5226 130.444 96.5077 131.533 95.7172 132.293C95.3443 132.666 94.8819 132.86 94.4046 132.86L94.4195 132.845Z" fill="white"/>
<path id="Vector_52" d="M112.9 114.365C112.393 114.365 111.886 114.141 111.498 113.723C111.14 113.35 110.961 112.873 110.976 112.396C110.991 111.919 111.229 111.441 111.617 111.068C111.99 110.725 112.423 110.546 112.87 110.546C113.377 110.546 113.869 110.785 114.257 111.203C114.615 111.59 114.794 112.038 114.779 112.515C114.764 113.007 114.541 113.47 114.138 113.843C113.78 114.186 113.333 114.365 112.885 114.365H112.9Z" fill="white"/>
</g>
</g>
</svg>
