<svg width="89" height="81" viewBox="0 0 89 81" fill="none" xmlns="http://www.w3.org/2000/svg">
<g id="Group" style="mix-blend-mode:overlay" opacity="0.45">
<path id="Vector" d="M-0.471924 9.23791C1.66101 5.43442 4.316 1.94416 7.43337 -1.1732C10.5507 -4.29057 14.041 -6.94556 17.8445 -9.07849L-0.471924 9.23791Z" fill="white"/>
<path id="Vector_2" d="M-6.39343 28.4492C-6.30394 27.4946 -6.19952 26.54 -6.05037 25.6004L34.2069 -14.6569C35.1466 -14.7912 36.1012 -14.9105 37.0558 -15L-6.39343 28.4492Z" fill="white"/>
<path id="Vector_3" d="M-5.82661 41.1574C-5.96085 40.4414 -6.06527 39.7106 -6.16968 38.9946L47.5863 -14.7614C48.3171 -14.6719 49.048 -14.5525 49.764 -14.4183L-5.82661 41.1723V41.1574Z" fill="white"/>
<path id="Vector_4" d="M-2.78386 51.4044C-3.03743 50.8227 -3.27608 50.2112 -3.49982 49.6146L58.2062 -12.1064C58.8028 -11.8826 59.3994 -11.644 59.996 -11.3904L-2.78386 51.3895V51.4044Z" fill="white"/>
<path id="Vector_5" d="M1.94435 59.9511C1.60129 59.4589 1.27315 58.9666 0.945007 58.4446L67.0511 -7.6615C67.5582 -7.33336 68.0654 -6.9903 68.5576 -6.66215L1.95927 59.9362L1.94435 59.9511Z" fill="white"/>
<path id="Vector_6" d="M8.05985 67.1255C7.85103 66.9167 7.64222 66.7078 7.4334 66.499C7.22458 66.2902 7.01576 66.0814 6.80695 65.8577L74.4643 -1.78476C74.6731 -1.57594 74.8819 -1.36712 75.0907 -1.1583C75.2995 -0.949484 75.5084 -0.740664 75.7172 -0.51693L8.05985 67.1404V67.1255Z" fill="white"/>
<path id="Vector_7" d="M15.4877 72.9873C14.9657 72.6592 14.4586 72.3161 13.9813 71.988L80.5796 5.37476C80.9077 5.85206 81.2508 6.35919 81.5789 6.88124L15.4728 72.9873H15.4877Z" fill="white"/>
<path id="Vector_8" d="M24.3179 77.4322C23.7213 77.2084 23.1097 76.9698 22.528 76.7162L85.3079 13.9363C85.5615 14.5329 85.8002 15.1296 86.0239 15.7262L24.3179 77.4322Z" fill="white"/>
<path id="Vector_9" d="M34.9378 80.1021C34.2069 80.0126 33.4909 79.8933 32.7601 79.759L88.3507 24.1685C88.4849 24.8844 88.5893 25.6153 88.6937 26.3461L34.9378 80.1021Z" fill="white"/>
<path id="Vector_10" d="M88.9324 36.8766C88.8429 37.8312 88.7385 38.7858 88.5894 39.7255L48.3171 79.9977C47.3775 80.1319 46.4229 80.2512 45.4683 80.3407L88.9175 36.8915L88.9324 36.8766Z" fill="white"/>
<path id="Vector_11" d="M83.0109 56.0879C80.8779 59.8914 78.2229 63.3817 75.1056 66.499C71.9882 69.6164 68.4979 72.2714 64.6945 74.4043L83.0109 56.0879Z" fill="white"/>
</g>
</svg>
