<svg width="22" height="17" viewBox="0 0 22 17" fill="none" xmlns="http://www.w3.org/2000/svg">
<path id="IC_MENU" d="M21.0938 14.2313H0.78125C0.57405 14.2313 0.375336 14.2937 0.228823 14.4049C0.08231 14.5161 0 14.667 0 14.8242L0 16.0102C0 16.1674 0.08231 16.3182 0.228823 16.4294C0.375336 16.5407 0.57405 16.6031 0.78125 16.6031H21.0938C21.301 16.6031 21.4997 16.5407 21.6462 16.4294C21.7927 16.3182 21.875 16.1674 21.875 16.0102V14.8242C21.875 14.667 21.7927 14.5161 21.6462 14.4049C21.4997 14.2937 21.301 14.2313 21.0938 14.2313ZM21.0938 9.4875H0.78125C0.57405 9.4875 0.375336 9.54997 0.228823 9.66118C0.08231 9.77238 0 9.9232 0 10.0805L0 11.2664C0 11.4237 0.08231 11.5745 0.228823 11.6857C0.375336 11.7969 0.57405 11.8594 0.78125 11.8594H21.0938C21.301 11.8594 21.4997 11.7969 21.6462 11.6857C21.7927 11.5745 21.875 11.4237 21.875 11.2664V10.0805C21.875 9.9232 21.7927 9.77238 21.6462 9.66118C21.4997 9.54997 21.301 9.4875 21.0938 9.4875ZM21.0938 4.74375H0.78125C0.57405 4.74375 0.375336 4.80622 0.228823 4.91743C0.08231 5.02863 0 5.17945 0 5.33672L0 6.52266C0 6.67992 0.08231 6.83075 0.228823 6.94195C0.375336 7.05315 0.57405 7.11563 0.78125 7.11563H21.0938C21.301 7.11563 21.4997 7.05315 21.6462 6.94195C21.7927 6.83075 21.875 6.67992 21.875 6.52266V5.33672C21.875 5.17945 21.7927 5.02863 21.6462 4.91743C21.4997 4.80622 21.301 4.74375 21.0938 4.74375ZM21.0938 0H0.78125C0.57405 0 0.375336 0.0624733 0.228823 0.173677C0.08231 0.28488 0 0.435704 0 0.592969L0 1.77891C0 1.93617 0.08231 2.087 0.228823 2.1982C0.375336 2.3094 0.57405 2.37188 0.78125 2.37188H21.0938C21.301 2.37188 21.4997 2.3094 21.6462 2.1982C21.7927 2.087 21.875 1.93617 21.875 1.77891V0.592969C21.875 0.435704 21.7927 0.28488 21.6462 0.173677C21.4997 0.0624733 21.301 0 21.0938 0Z" fill="#EDBCC2"/>
</svg>
